<?xml version="1.0" encoding="UTF-8"?>
<svg id="Layer_2" data-name="Layer 2" xmlns="http://www.w3.org/2000/svg" viewBox="0 0 25.66 35.26">
  <defs>
    <style>
      .cls-1 {
        fill: #034981;
      }

      .cls-1, .cls-2 {
        stroke-width: 0px;
      }

      .cls-2 {
        fill: #fff;
      }
    </style>
  </defs>
  <g id="Calque_1" data-name="Calque 1">
    <g>
      <path id="Tracé_379" data-name="Tracé 379" class="cls-1" d="m12.83,0C5.74,0,0,5.74,0,12.83c0,7.08,7.6,15.91,12.83,22.43,5.23-6.52,12.83-15.35,12.83-22.43S19.91,0,12.83,0"/>
      <path class="cls-2" d="m12.83,9.02c-.4,0-.73.33-.73.73v3.44c0,.4.33.73.73.73,0,0,0,0,0,0,0,0,0,0,0,0h1.89c.4,0,.73-.33.73-.73s-.33-.73-.73-.73h-1.17v-2.71c0-.4-.33-.73-.73-.73Z"/>
      <path class="cls-2" d="m21.82,12.46h-1.83c-.4,0-.73.33-.73.73s.33.73.73.73h1.07c-.35,3.98-3.53,7.16-7.51,7.51v-1.07c0-.4-.33-.73-.73-.73s-.73.33-.73.73v1.07c-3.98-.35-7.16-3.53-7.51-7.51h1.07c.4,0,.73-.33.73-.73s-.33-.73-.73-.73h-1.07c.35-3.98,3.53-7.16,7.51-7.51v1.07c0,.4.33.73.73.73s.73-.33.73-.73v-1.07c1.02.09,2.02.37,2.93.82l-.64.83,3.59.48-1.38-3.35-.67.87c-1.4-.74-2.97-1.14-4.56-1.14C7.47,3.47,3.11,7.83,3.11,13.19s4.36,9.72,9.72,9.72,9.72-4.36,9.72-9.72c0-.4-.33-.73-.73-.73Z"/>
    </g>
  </g>
</svg>