<?xml version="1.0" encoding="UTF-8"?>
<svg id="Calque_2" data-name="Calque 2" xmlns="http://www.w3.org/2000/svg" viewBox="0 0 44.74 44.74">
  <defs>
    <style>
      .cls-1 {
        stroke-width: 0px;
      }
    </style>
  </defs>
  <g id="Calque_1-2" data-name="Calque 1">
    <g>
      <path class="cls-1" d="m22.37,12.78c-.92,0-1.67.75-1.67,1.67v7.92c0,.92.75,1.67,1.67,1.67,0,0,0,0,0,0,0,0,0,0,0,0h4.36c.92,0,1.67-.75,1.67-1.67s-.75-1.67-1.67-1.67h-2.7v-6.25c0-.92-.75-1.67-1.67-1.67Z"/>
      <path class="cls-1" d="m43.07,20.7h-4.22c-.92,0-1.67.75-1.67,1.67s.75,1.67,1.67,1.67h2.47c-.8,9.16-8.12,16.48-17.28,17.28v-2.47c0-.92-.75-1.67-1.67-1.67s-1.67.75-1.67,1.67v2.47c-9.16-.8-16.48-8.12-17.28-17.28h2.47c.92,0,1.67-.75,1.67-1.67s-.75-1.67-1.67-1.67h-2.47C4.22,11.54,11.54,4.22,20.7,3.42v2.47c0,.92.75,1.67,1.67,1.67s1.67-.75,1.67-1.67v-2.47c2.35.21,4.64.85,6.75,1.89l-1.48,1.91,8.26,1.11-3.17-7.71-1.54,2c-3.22-1.71-6.83-2.62-10.5-2.62C10.03,0,0,10.03,0,22.37s10.03,22.37,22.37,22.37,22.37-10.03,22.37-22.37c0-.92-.75-1.67-1.67-1.67Z"/>
    </g>
  </g>
</svg>