<?xml version="1.0" encoding="UTF-8"?>
<svg id="Calque_2" data-name="Calque 2" xmlns="http://www.w3.org/2000/svg" viewBox="0 0 49.41 43.37">
  <defs>
    <style>
      .cls-1 {
        stroke-width: 0px;
      }
    </style>
  </defs>
  <g id="Calque_1-2" data-name="Calque 1">
    <path class="cls-1" d="m4.19,19.49c-.52.68-1,1.3-1.48,1.93-.16.21-.12.43-.05.66.46,1.56.71,3.17,1.14,4.73-.16.06-.21-.06-.27-.14-1-1.1-1.89-2.3-2.73-3.54-.31-.46-.51-1-.73-1.51-.13-.31-.06-.57.12-.85,2.56-3.87,5.81-6.98,9.88-9.21,3.47-1.9,7.17-3.08,11.09-3.58.44-.06.46-.23.38-.58-.44-1.85-.88-3.7-1.31-5.55-.08-.33-.15-.67-.25-.99-.09-.26,0-.37.25-.43.57-.13,1.14-.27,1.7-.43.28-.08.38.01.44.29.53,2.35,1.09,4.69,1.62,7.03.07.32.23.43.53.43,2.01-.01,3.99.24,5.96.64,4.78.98,9.11,2.95,12.87,6.09,2.35,1.96,4.29,4.27,5.91,6.87.21.33.21.6,0,.94-2.37,3.86-5.46,6.97-9.34,9.31-2.65,1.6-5.49,2.69-8.48,3.45-.85.22-.86.22-.65,1.09.49,2.09.97,4.18,1.48,6.27.07.3,0,.44-.29.5-.58.13-1.17.27-1.75.42-.2.05-.29-.01-.34-.22-.9-3.89-1.81-7.77-2.72-11.66-.08-.33-.17-.66-.25-.99-.05-.18-.12-.28-.34-.23-.68.15-1.36.3-2.05.31-.27,0-.32.13-.26.37.36,1.5.72,3.01,1.07,4.51.12.49.09.53-.39.52-.56-.01-1.12-.05-1.67-.06-.27,0-.37-.11-.43-.37-.37-1.63-.77-3.25-1.14-4.87-.08-.34-.24-.54-.58-.66-.67-.24-1.27-.61-1.87-1-.11-.07-.22-.17-.38-.18-.05.27.06.51.13.75.51,1.87.9,3.78,1.34,5.67.06.26.05.36-.26.29-.66-.15-1.33-.27-2-.39-.23-.04-.34-.14-.4-.39-1.14-4.93-2.27-9.86-3.44-14.78-.52-2.18-1.04-4.36-1.54-6.55-.04-.17-.05-.32-.31-.21-.66.29-1.28.66-1.91,1.01-.15.08-.15.2-.11.35,1.54,6.19,2.92,12.43,4.41,18.64.07.3.28.71.08.9-.2.19-.51-.16-.78-.26-.51-.18-1.01-.41-1.52-.59-.22-.08-.32-.21-.37-.43-.77-3.26-1.55-6.52-2.32-9.78-.54-2.28-1.05-4.56-1.58-6.83-.1-.44-.16-.46-.52-.17-.43.36-.85.72-1.29,1.08-.19.16-.23.32-.17.57,1.11,4.47,2.13,8.96,3.16,13.45.03.12.12.26.02.35-.12.09-.22-.06-.31-.12-.69-.47-1.37-.95-2.06-1.41-.35-.24-.54-.55-.63-.96-.64-2.77-1.35-5.52-1.94-8.3-.08-.38-.16-.77-.37-1.22Zm29.79,12.04c.15.08.28,0,.42-.04,1.5-.47,2.89-1.19,4.24-2,3.1-1.86,5.68-4.27,7.76-7.24.19-.26.19-.46,0-.73-.81-1.19-1.73-2.29-2.72-3.32-2.48-2.58-5.45-4.42-8.73-5.8-.27-.11-.55-.26-.94-.24,2.48,2.8,3.82,6.01,3.8,9.7-.02,3.7-1.33,6.93-3.83,9.67Zm1.39-9.84c-.09-4.16-1.96-7.82-6.15-10.13-1.21-.67-2.53-1-3.89-1.14-.6-.06-.62-.04-.48.53.15.61.32,1.22.44,1.83.06.29.17.41.46.47,1.35.26,2.58.82,3.62,1.71,2.63,2.26,3.75,5.12,3.12,8.57-.39,2.14-1.49,3.89-3.19,5.24-.2.15-.18.3-.13.5.16.69.33,1.38.47,2.08.09.45.15.48.54.24.99-.63,1.83-1.42,2.58-2.32,1.67-2.04,2.47-4.41,2.62-7.57Zm-17.24-6.23c-.01-.09-.01-.19-.04-.28-.28-1.14-.57-2.28-.83-3.43-.07-.29-.21-.29-.43-.25-.55.11-1.07.29-1.61.46-.26.08-.31.18-.25.44.42,1.78.82,3.57,1.24,5.35.02.1-.03.25.09.29.15.04.19-.13.25-.22.44-.69.86-1.4,1.45-1.98.1-.1.14-.23.13-.38Zm3.63-4.98c-.65.09-1.29.19-1.94.28-.25.03-.26.16-.21.38.2.85.4,1.7.57,2.56.06.29.15.33.41.21.6-.27,1.2-.51,1.85-.61.34-.05.37-.23.3-.51-.16-.61-.32-1.22-.42-1.84-.06-.37-.2-.51-.56-.46Z"/>
  </g>
</svg>