<?xml version="1.0" encoding="UTF-8"?>
<svg xmlns="http://www.w3.org/2000/svg" viewBox="0 0 328.32 335.24">
    <path d="m272.68,41.69c.7-1.2,1.18-2.62,2.13-3.58,8.06-8.17,16.25-16.22,24.3-24.4,5.24-5.33,11.3-7.22,18.38-4.58,6.45,2.41,9.87,8.12,9.88,16.08.03,28.45.04,56.89,0,85.34-.02,10.53-6.48,17.03-17.06,17.05-28.33.07-56.65.05-84.98,0-8.13-.01-13.87-3.55-16.35-10.11-2.69-7.13-.63-13.12,4.68-18.33,8.01-7.85,15.92-15.82,24.7-24.56-8.3-5.21-15.85-10.72-24.06-14.95-35.34-18.23-70.78-15.72-104.47,3.32-42.34,23.92-62.85,61.49-61.73,110.1,1.25,54.33,43.92,102.97,97.48,112.19,59.06,10.17,113.16-20.46,134.68-76.25,4.25-11.02,11.61-14.93,23.31-12.42,4.14.89,8.32,1.63,12.44,2.59,9.48,2.2,14.53,10.57,11.35,19.58-22.19,62.8-65.85,101.96-131.34,113.81-84.9,15.36-166.14-36.91-189.75-119.88C-19.69,121.46,37.59,25.09,129.83,4.28c51.97-11.73,97.68,1,138.54,33.99.87.7,1.74,1.42,2.62,2.11.18.14.44.2.66.29.34.34.69.69,1.03,1.03Z"/>
</svg>